<mxfile host="app.diagrams.net" modified="2021-09-29T06:50:43.268Z" agent="5.0 (Windows NT 10.0; Win64; x64) AppleWebKit/537.36 (KHTML, like Gecko) Chrome/94.0.4606.61 Safari/537.36" etag="ayduasiWvlL84ad8HbB1" version="15.3.7" type="github">
  <diagram id="zPdTXQSxtvWJwbm5Ij7a" name="Page-1">
    <mxGraphModel dx="2903" dy="1094" grid="1" gridSize="10" guides="1" tooltips="1" connect="1" arrows="1" fold="1" page="1" pageScale="1" pageWidth="827" pageHeight="1169" math="0" shadow="0">
      <root>
        <mxCell id="0" />
        <mxCell id="1" parent="0" />
        <mxCell id="sXd-7HuucVghBjIRTJ-X-11" value="" style="rounded=0;orthogonalLoop=1;jettySize=auto;html=1;" parent="1" source="sXd-7HuucVghBjIRTJ-X-1" target="sXd-7HuucVghBjIRTJ-X-10" edge="1">
          <mxGeometry relative="1" as="geometry" />
        </mxCell>
        <mxCell id="sXd-7HuucVghBjIRTJ-X-19" value="" style="rounded=0;orthogonalLoop=1;jettySize=auto;html=1;" parent="1" source="sXd-7HuucVghBjIRTJ-X-41" target="sXd-7HuucVghBjIRTJ-X-18" edge="1">
          <mxGeometry relative="1" as="geometry" />
        </mxCell>
        <mxCell id="sXd-7HuucVghBjIRTJ-X-30" value="" style="edgeStyle=none;rounded=0;orthogonalLoop=1;jettySize=auto;html=1;" parent="1" source="sXd-7HuucVghBjIRTJ-X-1" target="sXd-7HuucVghBjIRTJ-X-29" edge="1">
          <mxGeometry relative="1" as="geometry" />
        </mxCell>
        <mxCell id="sXd-7HuucVghBjIRTJ-X-32" value="" style="edgeStyle=none;rounded=0;orthogonalLoop=1;jettySize=auto;html=1;" parent="1" source="sXd-7HuucVghBjIRTJ-X-1" target="sXd-7HuucVghBjIRTJ-X-31" edge="1">
          <mxGeometry relative="1" as="geometry" />
        </mxCell>
        <mxCell id="sXd-7HuucVghBjIRTJ-X-34" value="" style="edgeStyle=none;rounded=0;orthogonalLoop=1;jettySize=auto;html=1;" parent="1" source="sXd-7HuucVghBjIRTJ-X-1" target="sXd-7HuucVghBjIRTJ-X-33" edge="1">
          <mxGeometry relative="1" as="geometry" />
        </mxCell>
        <mxCell id="sXd-7HuucVghBjIRTJ-X-36" value="" style="edgeStyle=none;rounded=0;orthogonalLoop=1;jettySize=auto;html=1;" parent="1" source="sXd-7HuucVghBjIRTJ-X-1" target="sXd-7HuucVghBjIRTJ-X-35" edge="1">
          <mxGeometry relative="1" as="geometry" />
        </mxCell>
        <mxCell id="sXd-7HuucVghBjIRTJ-X-38" value="" style="edgeStyle=none;rounded=0;orthogonalLoop=1;jettySize=auto;html=1;" parent="1" source="sXd-7HuucVghBjIRTJ-X-41" target="sXd-7HuucVghBjIRTJ-X-37" edge="1">
          <mxGeometry relative="1" as="geometry" />
        </mxCell>
        <mxCell id="sXd-7HuucVghBjIRTJ-X-40" value="" style="edgeStyle=none;rounded=0;orthogonalLoop=1;jettySize=auto;html=1;" parent="1" source="sXd-7HuucVghBjIRTJ-X-41" target="sXd-7HuucVghBjIRTJ-X-39" edge="1">
          <mxGeometry relative="1" as="geometry" />
        </mxCell>
        <mxCell id="sXd-7HuucVghBjIRTJ-X-1" value="강의" style="rounded=0;whiteSpace=wrap;html=1;" parent="1" vertex="1">
          <mxGeometry x="970" y="40" width="120" height="60" as="geometry" />
        </mxCell>
        <mxCell id="sXd-7HuucVghBjIRTJ-X-10" value="과목코드" style="ellipse;whiteSpace=wrap;html=1;rounded=0;" parent="1" vertex="1">
          <mxGeometry x="1100" y="130" width="120" height="60" as="geometry" />
        </mxCell>
        <mxCell id="sXd-7HuucVghBjIRTJ-X-18" value="강의실" style="ellipse;whiteSpace=wrap;html=1;rounded=0;" parent="1" vertex="1">
          <mxGeometry x="1080" y="496" width="120" height="60" as="geometry" />
        </mxCell>
        <mxCell id="sXd-7HuucVghBjIRTJ-X-22" value="" style="rounded=0;orthogonalLoop=1;jettySize=auto;html=1;endArrow=none;endFill=0;" parent="1" source="sXd-7HuucVghBjIRTJ-X-25" target="sXd-7HuucVghBjIRTJ-X-26" edge="1">
          <mxGeometry relative="1" as="geometry" />
        </mxCell>
        <mxCell id="sXd-7HuucVghBjIRTJ-X-23" value="" style="rounded=0;orthogonalLoop=1;jettySize=auto;html=1;endArrow=none;endFill=0;" parent="1" source="sXd-7HuucVghBjIRTJ-X-25" target="sXd-7HuucVghBjIRTJ-X-27" edge="1">
          <mxGeometry relative="1" as="geometry" />
        </mxCell>
        <mxCell id="sXd-7HuucVghBjIRTJ-X-24" value="" style="rounded=0;orthogonalLoop=1;jettySize=auto;html=1;endArrow=none;endFill=0;" parent="1" source="sXd-7HuucVghBjIRTJ-X-25" target="sXd-7HuucVghBjIRTJ-X-28" edge="1">
          <mxGeometry relative="1" as="geometry" />
        </mxCell>
        <mxCell id="tTgizMeEn4zQ96cOiGHq-3" value="" style="edgeStyle=none;rounded=0;orthogonalLoop=1;jettySize=auto;html=1;strokeColor=default;endArrow=none;endFill=0;" edge="1" parent="1" source="sXd-7HuucVghBjIRTJ-X-25" target="tTgizMeEn4zQ96cOiGHq-2">
          <mxGeometry relative="1" as="geometry" />
        </mxCell>
        <mxCell id="sXd-7HuucVghBjIRTJ-X-25" value="사용자" style="rounded=0;whiteSpace=wrap;html=1;" parent="1" vertex="1">
          <mxGeometry x="-370" y="570" width="120" height="60" as="geometry" />
        </mxCell>
        <mxCell id="sXd-7HuucVghBjIRTJ-X-26" value="과목코드" style="ellipse;whiteSpace=wrap;html=1;rounded=0;" parent="1" vertex="1">
          <mxGeometry x="-240" y="696" width="120" height="60" as="geometry" />
        </mxCell>
        <mxCell id="sXd-7HuucVghBjIRTJ-X-27" value="이름" style="ellipse;whiteSpace=wrap;html=1;rounded=0;" parent="1" vertex="1">
          <mxGeometry x="-500" y="696" width="120" height="60" as="geometry" />
        </mxCell>
        <mxCell id="sXd-7HuucVghBjIRTJ-X-28" value="학번" style="ellipse;whiteSpace=wrap;html=1;rounded=0;" parent="1" vertex="1">
          <mxGeometry x="-370" y="696" width="120" height="60" as="geometry" />
        </mxCell>
        <mxCell id="sXd-7HuucVghBjIRTJ-X-29" value="학기" style="ellipse;whiteSpace=wrap;html=1;rounded=0;" parent="1" vertex="1">
          <mxGeometry x="840" y="130" width="120" height="60" as="geometry" />
        </mxCell>
        <mxCell id="sXd-7HuucVghBjIRTJ-X-31" value="교양영역" style="ellipse;whiteSpace=wrap;html=1;rounded=0;" parent="1" vertex="1">
          <mxGeometry x="970" y="130" width="120" height="60" as="geometry" />
        </mxCell>
        <mxCell id="sXd-7HuucVghBjIRTJ-X-33" value="학점" style="ellipse;whiteSpace=wrap;html=1;rounded=0;" parent="1" vertex="1">
          <mxGeometry x="710" y="130" width="120" height="60" as="geometry" />
        </mxCell>
        <mxCell id="sXd-7HuucVghBjIRTJ-X-35" value="성적평가" style="ellipse;whiteSpace=wrap;html=1;rounded=0;" parent="1" vertex="1">
          <mxGeometry x="1230" y="130" width="120" height="60" as="geometry" />
        </mxCell>
        <mxCell id="sXd-7HuucVghBjIRTJ-X-37" value="요일" style="ellipse;whiteSpace=wrap;html=1;rounded=0;" parent="1" vertex="1">
          <mxGeometry x="820" y="496" width="120" height="60" as="geometry" />
        </mxCell>
        <mxCell id="sXd-7HuucVghBjIRTJ-X-39" value="시간" style="ellipse;whiteSpace=wrap;html=1;rounded=0;" parent="1" vertex="1">
          <mxGeometry x="950" y="496" width="120" height="60" as="geometry" />
        </mxCell>
        <mxCell id="sXd-7HuucVghBjIRTJ-X-41" value="위치시간 정보" style="rounded=0;whiteSpace=wrap;html=1;" parent="1" vertex="1">
          <mxGeometry x="950" y="370" width="120" height="60" as="geometry" />
        </mxCell>
        <mxCell id="sXd-7HuucVghBjIRTJ-X-42" style="edgeStyle=none;rounded=0;orthogonalLoop=1;jettySize=auto;html=1;exitX=0.5;exitY=1;exitDx=0;exitDy=0;" parent="1" source="sXd-7HuucVghBjIRTJ-X-41" target="sXd-7HuucVghBjIRTJ-X-41" edge="1">
          <mxGeometry relative="1" as="geometry" />
        </mxCell>
        <mxCell id="sXd-7HuucVghBjIRTJ-X-46" value="" style="rounded=0;orthogonalLoop=1;jettySize=auto;html=1;" parent="1" source="sXd-7HuucVghBjIRTJ-X-52" target="sXd-7HuucVghBjIRTJ-X-49" edge="1">
          <mxGeometry relative="1" as="geometry" />
        </mxCell>
        <mxCell id="sXd-7HuucVghBjIRTJ-X-47" value="" style="edgeStyle=none;rounded=0;orthogonalLoop=1;jettySize=auto;html=1;" parent="1" source="sXd-7HuucVghBjIRTJ-X-52" target="sXd-7HuucVghBjIRTJ-X-50" edge="1">
          <mxGeometry relative="1" as="geometry" />
        </mxCell>
        <mxCell id="sXd-7HuucVghBjIRTJ-X-48" value="" style="edgeStyle=none;rounded=0;orthogonalLoop=1;jettySize=auto;html=1;" parent="1" source="sXd-7HuucVghBjIRTJ-X-52" target="sXd-7HuucVghBjIRTJ-X-51" edge="1">
          <mxGeometry relative="1" as="geometry" />
        </mxCell>
        <mxCell id="sXd-7HuucVghBjIRTJ-X-49" value="명" style="ellipse;whiteSpace=wrap;html=1;rounded=0;" parent="1" vertex="1">
          <mxGeometry x="230" y="696" width="120" height="60" as="geometry" />
        </mxCell>
        <mxCell id="sXd-7HuucVghBjIRTJ-X-50" value="번호" style="ellipse;whiteSpace=wrap;html=1;rounded=0;" parent="1" vertex="1">
          <mxGeometry x="-30" y="696" width="120" height="60" as="geometry" />
        </mxCell>
        <mxCell id="sXd-7HuucVghBjIRTJ-X-51" value="분반" style="ellipse;whiteSpace=wrap;html=1;rounded=0;" parent="1" vertex="1">
          <mxGeometry x="100" y="696" width="120" height="60" as="geometry" />
        </mxCell>
        <mxCell id="sXd-7HuucVghBjIRTJ-X-55" value="" style="edgeStyle=none;rounded=0;orthogonalLoop=1;jettySize=auto;html=1;" parent="1" source="sXd-7HuucVghBjIRTJ-X-52" target="sXd-7HuucVghBjIRTJ-X-54" edge="1">
          <mxGeometry relative="1" as="geometry" />
        </mxCell>
        <mxCell id="sXd-7HuucVghBjIRTJ-X-57" value="" style="edgeStyle=none;rounded=0;orthogonalLoop=1;jettySize=auto;html=1;" parent="1" source="sXd-7HuucVghBjIRTJ-X-52" target="sXd-7HuucVghBjIRTJ-X-56" edge="1">
          <mxGeometry relative="1" as="geometry" />
        </mxCell>
        <mxCell id="sXd-7HuucVghBjIRTJ-X-59" value="" style="edgeStyle=none;rounded=0;orthogonalLoop=1;jettySize=auto;html=1;" parent="1" source="sXd-7HuucVghBjIRTJ-X-52" target="sXd-7HuucVghBjIRTJ-X-58" edge="1">
          <mxGeometry relative="1" as="geometry" />
        </mxCell>
        <mxCell id="sXd-7HuucVghBjIRTJ-X-52" value="교과목" style="rounded=0;whiteSpace=wrap;html=1;" parent="1" vertex="1">
          <mxGeometry x="300" y="570" width="120" height="60" as="geometry" />
        </mxCell>
        <mxCell id="sXd-7HuucVghBjIRTJ-X-53" style="edgeStyle=none;rounded=0;orthogonalLoop=1;jettySize=auto;html=1;exitX=0.5;exitY=1;exitDx=0;exitDy=0;" parent="1" source="sXd-7HuucVghBjIRTJ-X-52" target="sXd-7HuucVghBjIRTJ-X-52" edge="1">
          <mxGeometry relative="1" as="geometry" />
        </mxCell>
        <mxCell id="sXd-7HuucVghBjIRTJ-X-54" value="대표교수" style="ellipse;whiteSpace=wrap;html=1;rounded=0;" parent="1" vertex="1">
          <mxGeometry x="360" y="696" width="120" height="60" as="geometry" />
        </mxCell>
        <mxCell id="sXd-7HuucVghBjIRTJ-X-56" value="교양영역" style="ellipse;whiteSpace=wrap;html=1;rounded=0;" parent="1" vertex="1">
          <mxGeometry x="490" y="696" width="120" height="60" as="geometry" />
        </mxCell>
        <mxCell id="sXd-7HuucVghBjIRTJ-X-58" value="학점" style="ellipse;whiteSpace=wrap;html=1;rounded=0;" parent="1" vertex="1">
          <mxGeometry x="620" y="696" width="120" height="60" as="geometry" />
        </mxCell>
        <mxCell id="tTgizMeEn4zQ96cOiGHq-2" value="조회" style="rhombus;whiteSpace=wrap;html=1;rounded=0;" vertex="1" parent="1">
          <mxGeometry x="-150" y="560" width="140" height="80" as="geometry" />
        </mxCell>
        <mxCell id="tTgizMeEn4zQ96cOiGHq-4" style="edgeStyle=none;rounded=0;orthogonalLoop=1;jettySize=auto;html=1;exitX=0;exitY=1;exitDx=0;exitDy=0;" edge="1" parent="1" source="tTgizMeEn4zQ96cOiGHq-2" target="tTgizMeEn4zQ96cOiGHq-2">
          <mxGeometry relative="1" as="geometry" />
        </mxCell>
      </root>
    </mxGraphModel>
  </diagram>
</mxfile>
